<svg xmlns="http://www.w3.org/2000/svg" width="183.161" height="82.289" viewBox="0 0 183.161 82.289">
  <g id="Geoville_neg_blau" data-name="Geoville neg blau" transform="translate(0.06 -0.002)">
    <path id="Pfad_10" data-name="Pfad 10" d="M36.531,33.81c-6.7,0-11.38,5.366-11.38,13.051,0,7.448,4.68,12.265,11.92,12.265a19.329,19.329,0,0,0,8-1.543l.185-.083-.849-3.571-.269.113a15.222,15.222,0,0,1-6.477,1.206c-4.78,0-7.714-2.89-7.89-7.748H46.417l.049-.43a14.845,14.845,0,0,0,.124-1.828c0-5.274-2.634-11.432-10.059-11.432m5.4,10.106H29.847c.376-2.547,2.078-6.522,6.341-6.522a5.3,5.3,0,0,1,3.94,1.494,7.55,7.55,0,0,1,1.8,5.028" transform="translate(6.47 8.676)" fill="#fff"/>
    <path id="Pfad_11" data-name="Pfad 11" d="M56.495,33.809c-7.19,0-12.021,5.167-12.021,12.853,0,7.337,4.783,12.462,11.628,12.462,6.008,0,12.07-3.975,12.07-12.853,0-7.454-4.694-12.462-11.677-12.462m-.2,21.585c-4.036,0-6.964-3.733-6.964-8.877,0-4.469,2.183-8.976,7.064-8.976,4.717,0,6.866,4.6,6.866,8.877,0,5.2-2.929,8.976-6.965,8.976" transform="translate(11.429 8.676)" fill="#fff"/>
    <path id="Pfad_12" data-name="Pfad 12" d="M16.176,42.59v3.927H22.9v9.457a14.6,14.6,0,0,1-5.444.792c-7.716,0-12.508-5.018-12.508-13.1,0-8.047,5-13.046,13.048-13.046a16.7,16.7,0,0,1,7.211,1.4l.256.113,1.169-3.951-.188-.09a20.774,20.774,0,0,0-8.348-1.547c-10.806,0-18.1,6.96-18.152,17.32,0,5.062,1.708,9.616,4.686,12.488,3.126,2.984,7.226,4.435,12.534,4.435A31.239,31.239,0,0,0,27.4,58.961l.163-.058V42.59Z" transform="translate(0 6.812)" fill="#fff"/>
    <rect id="Rechteck_4" data-name="Rechteck 4" width="4.812" height="35.323" transform="translate(151.943 31.939)" fill="#fff"/>
    <path id="Pfad_13" data-name="Pfad 13" d="M140.017,33.81c-6.7,0-11.383,5.366-11.383,13.051,0,7.448,4.68,12.265,11.923,12.265a19.334,19.334,0,0,0,8-1.543l.186-.083-.852-3.571-.268.113a15.218,15.218,0,0,1-6.477,1.206c-4.779,0-7.712-2.89-7.89-7.748H149.9l.048-.42a14.92,14.92,0,0,0,.124-1.838c0-5.274-2.634-11.432-10.058-11.432m-6.683,10.106c.376-2.547,2.08-6.522,6.342-6.522a5.284,5.284,0,0,1,3.937,1.5,7.527,7.527,0,0,1,1.8,5.027Z" transform="translate(33.027 8.676)" fill="#fff"/>
    <rect id="Rechteck_5" data-name="Rechteck 5" width="4.812" height="35.323" transform="translate(140.886 31.939)" fill="#fff"/>
    <path id="Pfad_14" data-name="Pfad 14" d="M105.749,32.624a3.066,3.066,0,0,0,2.241-.877,2.74,2.74,0,0,0,.755-2.019,2.8,2.8,0,0,0-2.9-2.944,2.88,2.88,0,0,0-2.946,2.944,2.81,2.81,0,0,0,2.848,2.9" transform="translate(26.423 6.873)" fill="#fff"/>
    <rect id="Rechteck_6" data-name="Rechteck 6" width="4.81" height="24.238" transform="translate(129.863 43.024)" fill="#fff"/>
    <path id="Pfad_15" data-name="Pfad 15" d="M59.878,13.114,78.962,78.926H91.388L85.826,59.453,73.24,13.114Z" transform="translate(15.382 3.365)" fill="#fff"/>
    <path id="Pfad_16" data-name="Pfad 16" d="M103.218,0,80.527,62.81v.005l5.563,19.47L116.48,0Z" transform="translate(20.681)" fill="#00a7e7"/>
  </g>
</svg>
